<svg width="24" height="24" viewBox="0 0 24 24" fill="none" xmlns="http://www.w3.org/2000/svg">
<g clip-path="url(#clip0_4251_15549)">
<circle cx="12" cy="12" r="12" fill="white"/>
<path d="M12 17.9493C12.2329 17.9493 12.428 17.8707 12.5853 17.7133C12.7418 17.556 12.82 17.3609 12.82 17.128C12.82 16.896 12.7413 16.7013 12.584 16.544C12.4267 16.3867 12.232 16.3076 12 16.3067C11.768 16.3058 11.5733 16.3844 11.416 16.5427C11.2587 16.7009 11.18 16.8956 11.18 17.1267C11.18 17.3578 11.2587 17.5529 11.416 17.712C11.5733 17.8711 11.768 17.9511 12 17.9493ZM12 13.5373C12.1902 13.5373 12.3489 13.4733 12.476 13.3453C12.6031 13.2173 12.6667 13.0591 12.6667 12.8707V6.204C12.6667 6.01467 12.6027 5.85644 12.4747 5.72933C12.3467 5.60222 12.188 5.53822 11.9987 5.53733C11.8093 5.53644 11.6511 5.60044 11.524 5.72933C11.3969 5.85822 11.3333 6.01644 11.3333 6.204V12.8707C11.3333 13.0591 11.3973 13.2173 11.5253 13.3453C11.6533 13.4733 11.812 13.5373 12.0013 13.5373M12.004 24C10.3444 24 8.78444 23.6853 7.324 23.056C5.86356 22.4258 4.59289 21.5707 3.512 20.4907C2.43111 19.4107 1.57556 18.1413 0.945334 16.6827C0.315111 15.224 0 13.6644 0 12.004C0 10.3436 0.315111 8.78355 0.945334 7.324C1.57467 5.86355 2.42844 4.59289 3.50667 3.512C4.58489 2.43111 5.85467 1.57556 7.316 0.945333C8.77733 0.315111 10.3373 0 11.996 0C13.6547 0 15.2147 0.315111 16.676 0.945333C18.1364 1.57467 19.4071 2.42889 20.488 3.508C21.5689 4.58711 22.4244 5.85689 23.0547 7.31733C23.6849 8.77778 24 10.3373 24 11.996C24 13.6547 23.6853 15.2147 23.056 16.676C22.4267 18.1373 21.5716 19.408 20.4907 20.488C19.4098 21.568 18.1404 22.4236 16.6827 23.0547C15.2249 23.6858 13.6653 24.0009 12.004 24Z" fill="#9D4E24"/>
</g>
<defs>
<clipPath id="clip0_4251_15549">
<rect width="24" height="24" fill="white"/>
</clipPath>
</defs>
</svg>
