<svg width="12" height="12" viewBox="0 0 12 12" fill="none" xmlns="http://www.w3.org/2000/svg">
<path d="M4.77509 7.575L9.01259 3.3375C9.11259 3.2375 9.22926 3.1875 9.36259 3.1875C9.49592 3.1875 9.61259 3.2375 9.71259 3.3375C9.81259 3.4375 9.86259 3.55633 9.86259 3.694C9.86259 3.83167 9.81259 3.95033 9.71259 4.05L5.12509 8.65C5.02509 8.75 4.90842 8.8 4.77509 8.8C4.64176 8.8 4.52509 8.75 4.42509 8.65L2.27509 6.5C2.17509 6.4 2.12709 6.28133 2.13109 6.144C2.13509 6.00667 2.18726 5.88783 2.28759 5.7875C2.38792 5.68717 2.50676 5.63717 2.64409 5.6375C2.78142 5.63783 2.90009 5.68783 3.00009 5.7875L4.77509 7.575Z" fill="white"/>
</svg>
